<svg width="153" height="42" viewBox="0 0 153 42" fill="none" xmlns="http://www.w3.org/2000/svg">
<path d="M5.25087 3.88529C8.44261 3.49834 11.6969 3.29883 15.0004 3.29883C18.3037 3.29883 21.5576 3.4983 24.749 3.88517C27.7063 4.24366 29.8128 6.55899 29.9881 9.23906C29.4869 9.08275 28.9556 8.97906 28.4 8.936C26.2638 8.77043 24.1035 8.68605 21.923 8.68605C19.7425 8.68605 17.5823 8.77043 15.4461 8.93599C11.818 9.21718 9.23076 12.0831 9.23076 15.3062V21.4627C9.23076 23.8915 10.6995 26.1157 12.9735 27.1863L8.89281 30.9968C8.56281 31.305 8.06652 31.3971 7.63536 31.2304C7.2042 31.0636 6.92307 30.6707 6.92307 30.2349V24.4462C6.36383 24.3903 5.80641 24.3286 5.25089 24.2613C2.16102 23.8867 0 21.3759 0 18.5449V9.60171C0 6.77067 2.16101 4.25989 5.25087 3.88529Z" fill="#3C6685"/>
<path d="M21.923 10.8409C19.8063 10.8409 17.7098 10.9228 15.637 11.0835C13.2688 11.267 11.5384 13.1435 11.5384 15.3062V21.4627C11.5384 23.6286 13.2738 25.5061 15.6449 25.6869C17.5585 25.8327 19.4923 25.9125 21.4436 25.9238L25.7225 29.9194C26.0525 30.2275 26.5488 30.3197 26.98 30.1529C27.4112 29.9862 27.6923 29.5933 27.6923 29.1575V25.7242C27.862 25.7123 28.0316 25.6999 28.2011 25.687C30.5723 25.5063 32.3077 23.6287 32.3077 21.4628V15.3062C32.3077 13.1435 30.5773 11.267 28.2091 11.0835C26.1363 10.9229 24.0398 10.8409 21.923 10.8409Z" fill="#3C6685"/>
<path d="M65.26 31.364C63.1693 31.364 61.592 30.8973 60.528 29.964C59.464 29.0307 58.932 27.668 58.932 25.876V24.756C58.932 23.9907 59.0347 23.3653 59.24 22.88C59.4453 22.376 59.6973 21.9187 59.996 21.508C60.2947 21.0973 60.5373 20.7333 60.724 20.416C60.9293 20.08 61.032 19.7347 61.032 19.38C61.032 19.044 60.948 18.8107 60.78 18.68C60.6307 18.5307 60.4253 18.456 60.164 18.456C59.9773 18.456 59.7813 18.484 59.576 18.54C59.3893 18.596 59.1747 18.68 58.932 18.792L58.26 16.16C58.7827 15.88 59.3427 15.6933 59.94 15.6C60.556 15.488 61.0973 15.432 61.564 15.432C62.3853 15.432 63.0387 15.5627 63.524 15.824C64.028 16.0853 64.392 16.4587 64.616 16.944C64.84 17.4293 64.952 18.008 64.952 18.68C64.952 19.2587 64.868 19.772 64.7 20.22C64.532 20.6493 64.3173 21.0973 64.056 21.564C63.8133 21.9933 63.5893 22.3947 63.384 22.768C63.1973 23.1413 63.104 23.6827 63.104 24.392V25.512C63.104 26.1093 63.188 26.604 63.356 26.996C63.5427 27.3693 63.7947 27.6493 64.112 27.836C64.448 28.004 64.84 28.088 65.288 28.088C66.016 28.088 66.5573 27.8827 66.912 27.472C67.2667 27.0427 67.444 26.436 67.444 25.652V15.656H71.616V25.764C71.616 27.612 71.0747 29.012 69.992 29.964C68.9093 30.8973 67.332 31.364 65.26 31.364ZM63.1484 13.556V12.156C63.4097 12.0813 63.6991 11.9787 64.0164 11.848C64.3337 11.7173 64.6137 11.54 64.8564 11.316C65.0991 11.092 65.2204 10.812 65.2204 10.476C65.2204 10.2147 65.1457 10.0093 64.9964 9.86C64.8471 9.71067 64.6604 9.636 64.4364 9.636C64.2871 9.636 64.1284 9.664 63.9604 9.72C63.7924 9.776 63.6431 9.832 63.5124 9.888L62.9804 8.012C63.3537 7.69467 63.8204 7.48933 64.3804 7.396C64.9217 7.284 65.3791 7.228 65.7524 7.228C66.5924 7.228 67.2551 7.424 67.7404 7.816C68.2071 8.208 68.4404 8.78667 68.4404 9.552C68.4404 9.96267 68.3377 10.3453 68.1324 10.7C67.9084 11.0547 67.5724 11.344 67.1244 11.568L67.0124 10.84H72.3044V13.556H63.1484ZM81.6343 31.364C79.357 31.364 77.6676 30.8133 76.5663 29.712C75.465 28.592 74.9143 26.94 74.9143 24.756C74.9143 24.3827 74.9236 23.9347 74.9423 23.412C74.9796 22.8707 75.0263 22.3947 75.0823 21.984H81.8023V24.644H79.0303V25.036C79.0303 25.7827 79.1236 26.3987 79.3103 26.884C79.497 27.3507 79.777 27.696 80.1503 27.92C80.5423 28.144 81.0276 28.256 81.6063 28.256C82.241 28.256 82.773 28.116 83.2023 27.836C83.6503 27.556 83.9863 27.08 84.2103 26.408C84.453 25.736 84.5743 24.812 84.5743 23.636C84.5743 22.5347 84.4436 21.62 84.1823 20.892C83.9396 20.1453 83.5196 19.5853 82.9223 19.212C82.3436 18.8387 81.541 18.652 80.5143 18.652C79.9543 18.652 79.3756 18.7173 78.7783 18.848C78.181 18.96 77.6116 19.1093 77.0703 19.296C76.5476 19.4827 76.0903 19.688 75.6983 19.912V16.412C76.109 16.188 76.613 15.992 77.2103 15.824C77.8263 15.656 78.489 15.5253 79.1983 15.432C79.9076 15.3387 80.6076 15.292 81.2983 15.292C83.109 15.292 84.565 15.628 85.6663 16.3C86.7863 16.9533 87.5983 17.8867 88.1023 19.1C88.625 20.3133 88.8863 21.7507 88.8863 23.412C88.8863 25.1107 88.6343 26.5573 88.1303 27.752C87.645 28.928 86.8703 29.824 85.8063 30.44C84.7423 31.056 83.3516 31.364 81.6343 31.364ZM92.128 31V21.9C92.128 19.7533 92.6973 18.12 93.836 17C94.9746 15.8613 96.776 15.292 99.24 15.292C101.723 15.292 103.515 15.8613 104.616 17C105.736 18.12 106.296 19.7533 106.296 21.9V31H102.124V21.844C102.124 20.8547 101.891 20.08 101.424 19.52C100.976 18.9413 100.229 18.652 99.184 18.652C98.1573 18.652 97.4106 18.9413 96.944 19.52C96.496 20.08 96.272 20.8547 96.272 21.844V24.28L96.356 24.308C96.7106 23.58 97.1306 23.104 97.616 22.88C98.12 22.6373 98.8013 22.516 99.66 22.516H100.304V25.652H99.66C98.7266 25.652 98.0173 25.8107 97.532 26.128C97.0466 26.4453 96.7106 26.8653 96.524 27.388C96.356 27.892 96.272 28.4613 96.272 29.096V31H92.128ZM114.318 31.364C113.366 31.364 112.47 31.252 111.63 31.028C110.79 30.8227 110.006 30.524 109.278 30.132L110.398 27.08C110.808 27.3227 111.303 27.5373 111.882 27.724C112.46 27.9107 113.03 28.004 113.59 28.004C114.635 28.004 115.466 27.612 116.082 26.828C116.698 26.0253 117.006 24.8307 117.006 23.244C117.006 21.7507 116.698 20.612 116.082 19.828C115.466 19.044 114.504 18.652 113.198 18.652C112.582 18.652 111.947 18.7453 111.294 18.932C110.64 19.1 110.099 19.3147 109.67 19.576V16.132C110.248 15.8707 110.902 15.6653 111.63 15.516C112.358 15.3667 113.132 15.292 113.954 15.292C115.671 15.292 117.071 15.6093 118.154 16.244C119.236 16.8787 120.03 17.7933 120.534 18.988C121.038 20.164 121.29 21.5827 121.29 23.244C121.29 25.8947 120.683 27.9107 119.47 29.292C118.256 30.6733 116.539 31.364 114.318 31.364ZM128.672 31V20.864C128.672 20.08 128.486 19.5107 128.112 19.156C127.758 18.8013 127.17 18.624 126.348 18.624C125.732 18.624 125.163 18.708 124.64 18.876C124.136 19.044 123.66 19.2493 123.212 19.492V16.132C123.623 15.9453 124.202 15.7587 124.948 15.572C125.695 15.3853 126.572 15.292 127.58 15.292C128.607 15.292 129.512 15.4413 130.296 15.74C131.099 16.0387 131.724 16.5427 132.172 17.252C132.639 17.9427 132.872 18.8947 132.872 20.108V31H128.672ZM145.824 31.28C144.499 31.28 143.426 31.028 142.604 30.524C141.802 30.02 141.232 29.376 140.896 28.592H140.672L140.224 31H137.032V15.656H141.232V22.992C141.232 24.056 141.354 24.9333 141.596 25.624C141.839 26.296 142.194 26.8 142.66 27.136C143.127 27.472 143.687 27.64 144.34 27.64C145.124 27.64 145.722 27.4067 146.132 26.94C146.543 26.4733 146.748 25.7267 146.748 24.7V15.656H150.948V25.624C150.948 26.8373 150.752 27.864 150.36 28.704C149.987 29.544 149.418 30.188 148.652 30.636C147.887 31.0653 146.944 31.28 145.824 31.28Z" fill="#3C6685"/>
<path d="M47 8L47 38" stroke="#3C6685" stroke-width="2" stroke-linecap="round"/>
</svg>
