<svg width="129" height="129" viewBox="0 0 129 129" fill="none" xmlns="http://www.w3.org/2000/svg">
<path d="M129 64.5C129 100.122 100.122 129 64.5 129C28.8775 129 0 100.122 0 64.5C0 28.8775 28.8775 0 64.5 0C100.122 0 129 28.8775 129 64.5ZM57.0393 98.6522L104.894 50.7974C106.519 49.1724 106.519 46.5375 104.894 44.9125L99.0093 39.0277C97.3843 37.4025 94.7495 37.4025 93.1242 39.0277L54.0968 78.0549L35.8758 59.8339C34.2508 58.2089 31.6159 58.2089 29.9907 59.8339L24.1058 65.7187C22.4808 67.3437 22.4808 69.9786 24.1058 71.6036L51.1542 98.652C52.7795 100.277 55.4141 100.277 57.0393 98.6522Z" fill="#85D9A7"/>
</svg>
