<svg width="20" height="20" viewBox="0 0 20 20" fill="none" xmlns="http://www.w3.org/2000/svg">
<path fill-rule="evenodd" clip-rule="evenodd" d="M0 10C0 4.47715 4.47715 0 10 0C15.5228 0 20 4.47715 20 10C20 15.5228 15.5228 20 10 20C4.47715 20 0 15.5228 0 10ZM8.92948 8.52149C10.1051 7.93367 11.4288 8.99552 11.11 10.2707L10.3828 13.1794L10.4254 13.1581C10.8054 12.9682 11.2674 13.1222 11.4574 13.5022C11.6474 13.8821 11.4934 14.3442 11.1134 14.5342L11.0709 14.5555C9.89524 15.1433 8.57152 14.0814 8.89031 12.8063L9.6175 9.89753L9.57495 9.91881C9.19496 10.1088 8.73291 9.95478 8.54292 9.57479C8.35293 9.19481 8.50694 8.73275 8.88693 8.54276L8.92948 8.52149ZM10 6.92308C10.4248 6.92308 10.7692 6.57868 10.7692 6.15385C10.7692 5.72901 10.4248 5.38462 10 5.38462C9.57517 5.38462 9.23077 5.72901 9.23077 6.15385C9.23077 6.57868 9.57517 6.92308 10 6.92308Z" fill="#E77C7C"/>
</svg>
