<svg width="277" height="42" viewBox="0 0 277 42" fill="none" xmlns="http://www.w3.org/2000/svg">
<path d="M5 3.29883C2.23858 3.29883 0 5.38918 0 7.96776V11.4695C0 14.048 2.23858 16.1384 5 16.1384H8.75C11.5114 16.1384 13.75 14.048 13.75 11.4695V7.96776C13.75 5.38918 11.5114 3.29883 8.75 3.29883H5Z" fill="#3C6685"/>
<path d="M21.25 3.29883C18.4886 3.29883 16.25 5.38918 16.25 7.96776V11.4695C16.25 14.048 18.4886 16.1384 21.25 16.1384H25C27.7614 16.1384 30 14.048 30 11.4695V7.96776C30 5.38918 27.7614 3.29883 25 3.29883H21.25Z" fill="#3C6685"/>
<path d="M5 18.4729C2.23858 18.4729 0 20.5632 0 23.1418V26.6435C0 29.2221 2.23858 31.3124 5 31.3124H8.75C11.5114 31.3124 13.75 29.2221 13.75 26.6435V23.1418C13.75 20.5632 11.5114 18.4729 8.75 18.4729H5Z" fill="#3C6685"/>
<path d="M24.375 19.6401C24.375 18.9954 23.8154 18.4729 23.125 18.4729C22.4346 18.4729 21.875 18.9954 21.875 19.6401V23.7254H17.5C16.8096 23.7254 16.25 24.248 16.25 24.8926C16.25 25.5373 16.8096 26.0599 17.5 26.0599H21.875V30.1452C21.875 30.7898 22.4346 31.3124 23.125 31.3124C23.8154 31.3124 24.375 30.7898 24.375 30.1452V26.0599H28.75C29.4404 26.0599 30 25.5373 30 24.8926C30 24.248 29.4404 23.7254 28.75 23.7254H24.375V19.6401Z" fill="#3C6685"/>
<path d="M68.876 31.364C66.4493 31.364 64.6853 30.804 63.584 29.684C62.5013 28.5453 61.96 26.9027 61.96 24.756V15.656H66.16V24.98C66.16 25.9693 66.3747 26.7253 66.804 27.248C67.252 27.752 67.9427 28.004 68.876 28.004C69.8093 28.004 70.4907 27.752 70.92 27.248C71.368 26.7253 71.592 25.9693 71.592 24.98V10.14H75.792V24.756C75.792 26.9027 75.2413 28.5453 74.14 29.684C73.0573 30.804 71.3027 31.364 68.876 31.364ZM84.9974 31.364C83.8961 31.364 82.7854 31.2427 81.6654 31C80.5641 30.7573 79.5841 30.412 78.7254 29.964L79.9014 26.632C80.2748 26.8373 80.7228 27.052 81.2454 27.276C81.7681 27.5 82.3374 27.6867 82.9534 27.836C83.5694 27.9853 84.1948 28.06 84.8294 28.06C85.5761 28.06 86.1361 27.9573 86.5094 27.752C86.9014 27.528 87.0974 27.192 87.0974 26.744C87.0974 26.408 86.9668 26.1373 86.7054 25.932C86.4628 25.708 86.0988 25.5027 85.6134 25.316C85.1281 25.1107 84.5494 24.896 83.8774 24.672C82.8881 24.3173 82.0388 23.9347 81.3294 23.524C80.6201 23.1133 80.0694 22.6093 79.6774 22.012C79.3041 21.4147 79.1174 20.668 79.1174 19.772C79.1174 18.7453 79.3788 17.9053 79.9014 17.252C80.4241 16.5987 81.1614 16.1133 82.1134 15.796C83.0654 15.46 84.1761 15.292 85.4454 15.292C86.4908 15.292 87.4334 15.376 88.2734 15.544C89.1134 15.712 89.7668 15.9267 90.2334 16.188V19.492C89.9161 19.3427 89.4961 19.1933 88.9734 19.044C88.4694 18.8947 87.9188 18.7733 87.3214 18.68C86.7428 18.568 86.1828 18.512 85.6414 18.512C84.8761 18.512 84.2974 18.6147 83.9054 18.82C83.5134 19.0253 83.3174 19.3147 83.3174 19.688C83.3174 19.9867 83.4481 20.2387 83.7094 20.444C83.9894 20.6493 84.3908 20.8453 84.9134 21.032C85.4361 21.2 86.0614 21.4147 86.7894 21.676C87.7601 22.012 88.5814 22.3853 89.2534 22.796C89.9254 23.2067 90.4294 23.7107 90.7654 24.308C91.1201 24.9053 91.2974 25.6427 91.2974 26.52C91.2974 27.36 91.1014 28.1533 90.7094 28.9C90.3361 29.628 89.6921 30.2253 88.7774 30.692C87.8628 31.14 86.6028 31.364 84.9974 31.364ZM96.8576 21.956C95.999 21.956 95.3176 21.8253 94.8136 21.564C94.3096 21.3027 93.9456 20.9573 93.7216 20.528C93.4976 20.08 93.3856 19.6133 93.3856 19.128C93.3856 18.8107 93.4323 18.484 93.5256 18.148C93.619 17.7933 93.759 17.448 93.9456 17.112L96.9976 17.504C96.9603 17.6347 96.923 17.7747 96.8856 17.924C96.867 18.0733 96.8576 18.232 96.8576 18.4C96.8576 18.6427 96.9323 18.8387 97.0816 18.988C97.231 19.1187 97.4923 19.184 97.8656 19.184H101.03V21.956H96.8576ZM96.8576 29.796C95.999 29.796 95.3176 29.6653 94.8136 29.404C94.3096 29.1427 93.9456 28.7973 93.7216 28.368C93.4976 27.92 93.3856 27.4533 93.3856 26.968C93.3856 26.6507 93.4323 26.324 93.5256 25.988C93.619 25.6333 93.759 25.288 93.9456 24.952L96.9976 25.344C96.9603 25.4747 96.923 25.6147 96.8856 25.764C96.867 25.9133 96.8576 26.072 96.8576 26.24C96.8576 26.4827 96.9323 26.6787 97.0816 26.828C97.231 26.9587 97.4923 27.024 97.8656 27.024H101.03V29.796H96.8576ZM104.121 31V26.324C104.121 25.148 104.354 24.2427 104.821 23.608C105.287 22.9733 105.95 22.5253 106.809 22.264L106.837 22.152L103.841 21.06V20.332C103.841 19.4173 104.111 18.5773 104.653 17.812C105.194 17.0467 105.987 16.44 107.033 15.992C108.097 15.5253 109.385 15.292 110.897 15.292C112.315 15.292 113.538 15.516 114.565 15.964C115.591 16.3933 116.385 17.0467 116.945 17.924C117.523 18.7827 117.813 19.8747 117.813 21.2V31H113.613V21.452C113.613 20.5187 113.361 19.8187 112.857 19.352C112.371 18.8853 111.681 18.652 110.785 18.652C109.926 18.652 109.282 18.8387 108.853 19.212C108.423 19.5667 108.19 20.0053 108.153 20.528L110.645 21.676L110.337 23.496C109.665 23.5333 109.161 23.776 108.825 24.224C108.489 24.672 108.321 25.2787 108.321 26.044V31H104.121ZM125.793 31V20.864C125.793 20.08 125.607 19.5107 125.233 19.156C124.879 18.8013 124.291 18.624 123.469 18.624C122.853 18.624 122.284 18.708 121.761 18.876C121.257 19.044 120.781 19.2493 120.333 19.492V16.132C120.744 15.9453 121.323 15.7587 122.069 15.572C122.816 15.3853 123.693 15.292 124.701 15.292C125.728 15.292 126.633 15.4413 127.417 15.74C128.22 16.0387 128.845 16.5427 129.293 17.252C129.76 17.9427 129.993 18.8947 129.993 20.108V31H125.793ZM133.901 31V21.9C133.901 19.7533 134.471 18.12 135.609 17C136.748 15.8613 138.559 15.292 141.041 15.292C142.105 15.292 143.048 15.4413 143.869 15.74C144.691 16.02 145.316 16.524 145.745 17.252C146.623 17.588 147.229 18.1667 147.565 18.988C147.92 19.8093 148.097 20.7893 148.097 21.928V31H143.925V21.844C143.925 20.8547 143.692 20.08 143.225 19.52C142.777 18.9413 142.04 18.652 141.013 18.652C139.987 18.652 139.24 18.9413 138.773 19.52C138.307 20.08 138.073 20.8547 138.073 21.844V24.28L138.157 24.308C138.531 23.58 138.96 23.104 139.445 22.88C139.931 22.6373 140.603 22.516 141.461 22.516H142.133V25.652H141.461C140.547 25.652 139.837 25.8107 139.333 26.128C138.848 26.4453 138.512 26.8653 138.325 27.388C138.157 27.892 138.073 28.4613 138.073 29.096V31H133.901ZM145.885 18.708L143.589 16.776C144.243 16.552 144.756 16.272 145.129 15.936C145.503 15.5813 145.699 15.152 145.717 14.648H149.385C149.385 15.2267 149.264 15.7867 149.021 16.328C148.797 16.8507 148.424 17.3173 147.901 17.728C147.397 18.1387 146.725 18.4653 145.885 18.708ZM158.21 31.28C156.549 31.28 155.252 30.944 154.318 30.272C153.404 29.5813 152.76 28.6293 152.386 27.416C152.032 26.184 151.854 24.756 151.854 23.132C151.854 21.3213 152.032 19.8467 152.386 18.708C152.741 17.5693 153.273 16.7293 153.982 16.188C154.71 15.6467 155.597 15.376 156.642 15.376C157.296 15.376 157.865 15.5067 158.35 15.768C158.854 16.0107 159.256 16.468 159.554 17.14H159.666C159.928 16.4493 160.357 15.9827 160.954 15.74C161.552 15.4973 162.196 15.376 162.886 15.376C164.174 15.376 165.136 15.7213 165.77 16.412C166.424 17.1027 166.75 18.1107 166.75 19.436V31H162.55V20.22C162.55 19.6413 162.457 19.2493 162.27 19.044C162.084 18.8387 161.832 18.736 161.514 18.736C161.16 18.736 160.889 18.8387 160.702 19.044C160.534 19.2493 160.422 19.5947 160.366 20.08H158.714C158.64 19.5387 158.5 19.184 158.294 19.016C158.089 18.8293 157.846 18.736 157.566 18.736C157.1 18.736 156.736 19.072 156.474 19.744C156.232 20.416 156.11 21.5547 156.11 23.16C156.11 24.2053 156.185 25.1013 156.334 25.848C156.502 26.576 156.782 27.136 157.174 27.528C157.566 27.9013 158.126 28.088 158.854 28.088C159.078 28.088 159.284 28.0787 159.47 28.06C159.657 28.0227 159.816 27.976 159.946 27.92L160.366 30.916C160.068 31.0467 159.741 31.14 159.386 31.196C159.032 31.252 158.64 31.28 158.21 31.28ZM174.739 31V20.864C174.739 20.08 174.552 19.5107 174.179 19.156C173.824 18.8013 173.236 18.624 172.415 18.624C171.799 18.624 171.229 18.708 170.707 18.876C170.203 19.044 169.727 19.2493 169.279 19.492V16.132C169.689 15.9453 170.268 15.7587 171.015 15.572C171.761 15.3853 172.639 15.292 173.647 15.292C174.673 15.292 175.579 15.4413 176.363 15.74C177.165 16.0387 177.791 16.5427 178.239 17.252C178.705 17.9427 178.939 18.8947 178.939 20.108V31H174.739ZM191.891 31.28C190.565 31.28 189.492 31.028 188.671 30.524C187.868 30.02 187.299 29.376 186.963 28.592H186.739L186.291 31H183.099V15.656H187.299V22.992C187.299 24.056 187.42 24.9333 187.663 25.624C187.905 26.296 188.26 26.8 188.727 27.136C189.193 27.472 189.753 27.64 190.407 27.64C191.191 27.64 191.788 27.4067 192.199 26.94C192.609 26.4733 192.815 25.7267 192.815 24.7V15.656H197.015V25.624C197.015 26.8373 196.819 27.864 196.427 28.704C196.053 29.544 195.484 30.188 194.719 30.636C193.953 31.0653 193.011 31.28 191.891 31.28ZM201.2 31V15.656H205.344V21.396H205.456L210.216 15.656H214.836V15.796L205.344 26.324V31H201.2ZM210.58 31V25.932C210.58 24.9427 210.291 24.2333 209.712 23.804C209.152 23.356 208.331 23.132 207.248 23.132L209.712 20.22C210.832 20.22 211.766 20.444 212.512 20.892C213.259 21.34 213.819 21.9467 214.192 22.712C214.584 23.4587 214.78 24.3173 214.78 25.288V31H210.58ZM222.426 31V20.864C222.426 20.08 222.24 19.5107 221.866 19.156C221.512 18.8013 220.924 18.624 220.102 18.624C219.486 18.624 218.917 18.708 218.394 18.876C217.89 19.044 217.414 19.2493 216.966 19.492V16.132C217.377 15.9453 217.956 15.7587 218.702 15.572C219.449 15.3853 220.326 15.292 221.334 15.292C222.361 15.292 223.266 15.4413 224.05 15.74C224.853 16.0387 225.478 16.5427 225.926 17.252C226.393 17.9427 226.626 18.8947 226.626 20.108V31H222.426ZM237.45 31.364C235.024 31.364 233.26 30.804 232.158 29.684C231.076 28.5453 230.534 26.9027 230.534 24.756V15.656H234.734V24.98C234.734 25.9693 234.949 26.7253 235.378 27.248C235.826 27.752 236.517 28.004 237.45 28.004C238.384 28.004 239.065 27.752 239.494 27.248C239.942 26.7253 240.166 25.9693 240.166 24.98V15.656H244.366V24.756C244.366 26.9027 243.816 28.5453 242.714 29.684C241.632 30.804 239.877 31.364 237.45 31.364ZM235.926 13.556V12.156C236.187 12.0813 236.476 11.9787 236.794 11.848C237.111 11.7173 237.391 11.54 237.634 11.316C237.876 11.092 237.998 10.812 237.998 10.476C237.998 10.2147 237.923 10.0093 237.774 9.86C237.624 9.71067 237.438 9.636 237.214 9.636C237.064 9.636 236.906 9.664 236.738 9.72C236.57 9.776 236.42 9.832 236.29 9.888L235.758 8.012C236.131 7.69467 236.598 7.48933 237.158 7.396C237.699 7.284 238.156 7.228 238.53 7.228C239.37 7.228 240.032 7.424 240.518 7.816C240.984 8.208 241.218 8.78667 241.218 9.552C241.218 9.96267 241.115 10.3453 240.91 10.7C240.686 11.0547 240.35 11.344 239.902 11.568L239.79 10.84H245.082V13.556H235.926ZM252.34 31V20.864C252.34 20.08 252.154 19.5107 251.78 19.156C251.426 18.8013 250.838 18.624 250.016 18.624C249.4 18.624 248.831 18.708 248.308 18.876C247.804 19.044 247.328 19.2493 246.88 19.492V16.132C247.291 15.9453 247.87 15.7587 248.616 15.572C249.363 15.3853 250.24 15.292 251.248 15.292C252.275 15.292 253.18 15.4413 253.964 15.74C254.767 16.0387 255.392 16.5427 255.84 17.252C256.307 17.9427 256.54 18.8947 256.54 20.108V31H252.34ZM265.684 31.28C264.546 31.28 263.584 31.0653 262.8 30.636C262.035 30.188 261.447 29.5253 261.036 28.648C260.644 27.7707 260.448 26.6973 260.448 25.428V15.656H264.648V24.7C264.648 25.7267 264.854 26.4733 265.264 26.94C265.675 27.4067 266.272 27.64 267.056 27.64C268.046 27.64 268.811 27.2667 269.352 26.52C269.894 25.7547 270.164 24.5787 270.164 22.992V15.656H274.364V31H271.172L270.724 28.648H270.472C270.155 29.3947 269.604 30.02 268.82 30.524C268.055 31.028 267.01 31.28 265.684 31.28Z" fill="#3C6685"/>
<path d="M46 8L46 38" stroke="#3C6685" stroke-width="2" stroke-linecap="round"/>
</svg>
