<svg width="46" height="44" viewBox="0 0 46 44" fill="none" xmlns="http://www.w3.org/2000/svg">
<path fill-rule="evenodd" clip-rule="evenodd" d="M38.7706 38.0713C43.2215 34.1549 46 28.5994 46 22.438C46 10.5766 35.7025 0.960938 23 0.960938C10.2975 0.960938 0 10.5766 0 22.438C0 28.5994 2.77852 34.1549 7.22938 38.0713C11.3469 41.6946 16.8958 43.9151 23 43.9151C29.1042 43.9151 34.6531 41.6946 38.7706 38.0713ZM9.18849 35.2412C12.4309 31.4646 17.413 29.0463 23 29.0463C28.587 29.0463 33.5691 31.4646 36.8115 35.2412C33.2858 38.5575 28.3997 40.6109 23 40.6109C17.6003 40.6109 12.7142 38.5575 9.18849 35.2412ZM31.8462 15.8297C31.8462 20.3918 27.8856 24.0901 23 24.0901C18.1144 24.0901 14.1538 20.3918 14.1538 15.8297C14.1538 11.2676 18.1144 7.56927 23 7.56927C27.8856 7.56927 31.8462 11.2676 31.8462 15.8297Z" fill="#3C6685"/>
</svg>
