<svg width="119" height="42" viewBox="0 0 119 42" fill="none" xmlns="http://www.w3.org/2000/svg">
<path d="M9.23077 15.6895C9.23077 13.6068 11.0388 11.9184 13.2692 11.9184C15.4996 11.9184 17.3077 13.6068 17.3077 15.6895C17.3077 16.7311 16.8569 17.6724 16.1249 18.356C15.3928 19.0396 14.3847 19.4605 13.2692 19.4605C11.0388 19.4605 9.23077 17.7722 9.23077 15.6895Z" fill="#3C6685"/>
<path fill-rule="evenodd" clip-rule="evenodd" d="M15 3.29883C6.71573 3.29883 0 9.56988 0 17.3056C0 25.0414 6.71573 31.3124 15 31.3124C23.2843 31.3124 30 25.0414 30 17.3056C30 9.56988 23.2843 3.29883 15 3.29883ZM13.2692 9.7635C9.76435 9.7635 6.92308 12.4166 6.92308 15.6895C6.92308 18.9623 9.76435 21.6154 13.2692 21.6154C14.6043 21.6154 15.8442 21.2296 16.8663 20.572L19.9533 23.4547C20.4039 23.8755 21.1345 23.8755 21.5851 23.4547C22.0357 23.0339 22.0357 22.3517 21.5851 21.931L18.498 19.0483C19.2022 18.0939 19.6154 16.9361 19.6154 15.6895C19.6154 12.4166 16.7741 9.7635 13.2692 9.7635Z" fill="#3C6685"/>
<path d="M54.96 31V21.9C54.96 19.7533 55.5293 18.12 56.668 17C57.8067 15.8613 59.608 15.292 62.072 15.292C64.5547 15.292 66.3467 15.8613 67.448 17C68.568 18.12 69.128 19.7533 69.128 21.9V31H64.956V21.844C64.956 20.8547 64.7227 20.08 64.256 19.52C63.808 18.9413 63.0613 18.652 62.016 18.652C60.9893 18.652 60.2427 18.9413 59.776 19.52C59.328 20.08 59.104 20.8547 59.104 21.844V24.28L59.188 24.308C59.5427 23.58 59.9627 23.104 60.448 22.88C60.952 22.6373 61.6333 22.516 62.492 22.516H63.136V25.652H62.492C61.5587 25.652 60.8493 25.8107 60.364 26.128C59.8787 26.4453 59.5427 26.8653 59.356 27.388C59.188 27.892 59.104 28.4613 59.104 29.096V31H54.96ZM60.2422 13.556V12.156C60.5035 12.0813 60.7928 11.9787 61.1102 11.848C61.4275 11.7173 61.7075 11.54 61.9502 11.316C62.1928 11.092 62.3142 10.812 62.3142 10.476C62.3142 10.2147 62.2395 10.0093 62.0902 9.86C61.9408 9.71067 61.7542 9.636 61.5302 9.636C61.3808 9.636 61.2222 9.664 61.0542 9.72C60.8862 9.776 60.7368 9.832 60.6062 9.888L60.0742 8.012C60.4475 7.69467 60.9142 7.48933 61.4742 7.396C62.0155 7.284 62.4728 7.228 62.8462 7.228C63.6862 7.228 64.3488 7.424 64.8342 7.816C65.3008 8.208 65.5342 8.78667 65.5342 9.552C65.5342 9.96267 65.4315 10.3453 65.2262 10.7C65.0022 11.0547 64.6662 11.344 64.2182 11.568L64.1062 10.84H69.3982V13.556H60.2422ZM78.2976 31.28C77.1589 31.28 76.1976 31.0653 75.4136 30.636C74.6482 30.188 74.0602 29.5253 73.6496 28.648C73.2576 27.7707 73.0616 26.6973 73.0616 25.428V15.656H77.2616V24.7C77.2616 25.7267 77.4669 26.4733 77.8776 26.94C78.2882 27.4067 78.8856 27.64 79.6696 27.64C80.6589 27.64 81.4242 27.2667 81.9656 26.52C82.5069 25.7547 82.7776 24.5787 82.7776 22.992V15.656H86.9776V31H83.7856L83.3376 28.648H83.0856C82.7682 29.3947 82.2176 30.02 81.4336 30.524C80.6682 31.028 79.6229 31.28 78.2976 31.28ZM91.4151 31V15.656H95.5591V21.396H95.6711L100.431 15.656H105.051V15.796L95.5591 26.324V31H91.4151ZM100.795 31V25.932C100.795 24.9427 100.506 24.2333 99.9271 23.804C99.3671 23.356 98.5458 23.132 97.4631 23.132L99.9271 20.22C101.047 20.22 101.98 20.444 102.727 20.892C103.474 21.34 104.034 21.9467 104.407 22.712C104.799 23.4587 104.995 24.3173 104.995 25.288V31H100.795ZM112.641 31V20.864C112.641 20.08 112.454 19.5107 112.081 19.156C111.726 18.8013 111.138 18.624 110.317 18.624C109.701 18.624 109.132 18.708 108.609 18.876C108.105 19.044 107.629 19.2493 107.181 19.492V16.132C107.592 15.9453 108.17 15.7587 108.917 15.572C109.664 15.3853 110.541 15.292 111.549 15.292C112.576 15.292 113.481 15.4413 114.265 15.74C115.068 16.0387 115.693 16.5427 116.141 17.252C116.608 17.9427 116.841 18.8947 116.841 20.108V31H112.641Z" fill="#3C6685"/>
<path d="M42 8L42 38" stroke="#3C6685" stroke-width="2" stroke-linecap="round"/>
</svg>
