<svg width="20" height="20" viewBox="0 0 20 20" fill="none" xmlns="http://www.w3.org/2000/svg">
<path fill-rule="evenodd" clip-rule="evenodd" d="M0 9.75C0 4.36522 4.36522 0 9.75 0C15.1348 0 19.5 4.36522 19.5 9.75C19.5 15.1348 15.1348 19.5 9.75 19.5C4.36522 19.5 0 15.1348 0 9.75ZM8.70624 8.30845C9.85248 7.73533 11.1431 8.77063 10.8323 10.0139L10.1233 12.8499L10.1648 12.8292C10.5352 12.644 10.9857 12.7941 11.171 13.1646C11.3562 13.5351 11.2061 13.9856 10.8356 14.1708L10.7941 14.1916C9.64785 14.7647 8.35723 13.7294 8.66805 12.4861L9.37706 9.65009L9.33557 9.67083C8.96509 9.85608 8.51459 9.70591 8.32934 9.33542C8.1441 8.96494 8.29427 8.51444 8.66475 8.32919L8.70624 8.30845ZM9.75 6.75C10.1642 6.75 10.5 6.41421 10.5 6C10.5 5.58579 10.1642 5.25 9.75 5.25C9.33579 5.25 9 5.58579 9 6C9 6.41421 9.33579 6.75 9.75 6.75Z" fill="#E77C7C"/>
</svg>
